<?xml version="1.0" encoding="UTF-8" standalone="no"?>
<!-- Created with Inkscape (http://www.inkscape.org/) -->

<svg
   xmlns:dc="http://purl.org/dc/elements/1.1/"
   xmlns:cc="http://creativecommons.org/ns#"
   xmlns:rdf="http://www.w3.org/1999/02/22-rdf-syntax-ns#"
   xmlns:svg="http://www.w3.org/2000/svg"
   xmlns="http://www.w3.org/2000/svg"
   xmlns:xlink="http://www.w3.org/1999/xlink"
   xmlns:sodipodi="http://sodipodi.sourceforge.net/DTD/sodipodi-0.dtd"
   xmlns:inkscape="http://www.inkscape.org/namespaces/inkscape"
   width="1920"
   height="1080"
   id="svg9586"
   version="1.1"
   inkscape:version="0.48.5 r10040"
   sodipodi:docname="tiger_by_daniel_krapek.svg">
  <defs
     id="defs9588">
    <linearGradient
       inkscape:collect="always"
       id="linearGradient11997">
      <stop
         style="stop-color:#ffebd1;stop-opacity:1;"
         offset="0"
         id="stop11999" />
      <stop
         style="stop-color:#ffebd1;stop-opacity:0;"
         offset="1"
         id="stop12001" />
    </linearGradient>
    <linearGradient
       inkscape:collect="always"
       xlink:href="#linearGradient10861"
       id="linearGradient11217"
       gradientUnits="userSpaceOnUse"
       gradientTransform="matrix(0.74666668,0,0,0.69999995,1344.1639,6548.2438)"
       x1="8972.334"
       y1="16422.814"
       x2="6613.9023"
       y2="16422.814" />
    <linearGradient
       inkscape:collect="always"
       id="linearGradient10861">
      <stop
         style="stop-color:#fe9000;stop-opacity:1;"
         offset="0"
         id="stop10863" />
      <stop
         style="stop-color:#fe9000;stop-opacity:0;"
         offset="1"
         id="stop10865" />
    </linearGradient>
    <linearGradient
       inkscape:collect="always"
       xlink:href="#linearGradient10851"
       id="linearGradient11322"
       gradientUnits="userSpaceOnUse"
       gradientTransform="matrix(0.69081969,0,0,0.69081969,1647.0461,6699.0184)"
       x1="5275.8892"
       y1="16180.276"
       x2="6557.1309"
       y2="16180.276" />
    <linearGradient
       inkscape:collect="always"
       id="linearGradient10851">
      <stop
         style="stop-color:#ff9813;stop-opacity:1;"
         offset="0"
         id="stop10853" />
      <stop
         style="stop-color:#ff9813;stop-opacity:0;"
         offset="1"
         id="stop10855" />
    </linearGradient>
    <linearGradient
       inkscape:collect="always"
       xlink:href="#linearGradient10813"
       id="linearGradient11319"
       gradientUnits="userSpaceOnUse"
       gradientTransform="matrix(0.69081969,0,0,0.69081969,1647.0461,6679.9256)"
       x1="6958.7266"
       y1="16715.047"
       x2="6097.019"
       y2="16715.047" />
    <linearGradient
       inkscape:collect="always"
       id="linearGradient10813">
      <stop
         style="stop-color:#ffffff;stop-opacity:1;"
         offset="0"
         id="stop10815" />
      <stop
         style="stop-color:#ffffff;stop-opacity:0;"
         offset="1"
         id="stop10817" />
    </linearGradient>
    <linearGradient
       inkscape:collect="always"
       xlink:href="#linearGradient11170"
       id="linearGradient11315"
       gradientUnits="userSpaceOnUse"
       gradientTransform="matrix(0.69081969,0,0,0.69081969,1647.1019,6699.0031)"
       x1="5246.4658"
       y1="16422.816"
       x2="7429.0566"
       y2="16422.816" />
    <linearGradient
       inkscape:collect="always"
       id="linearGradient11170">
      <stop
         style="stop-color:#454545;stop-opacity:1"
         offset="0"
         id="stop11172" />
      <stop
         style="stop-color:#2d2d2d;stop-opacity:0;"
         offset="1"
         id="stop11174" />
    </linearGradient>
    <linearGradient
       inkscape:collect="always"
       xlink:href="#linearGradient11170"
       id="linearGradient11468"
       gradientUnits="userSpaceOnUse"
       gradientTransform="matrix(0.69081969,0,0,0.69081969,-3707.0893,-10832.85)"
       x1="5246.4658"
       y1="16422.816"
       x2="7429.0566"
       y2="16422.816" />
    <linearGradient
       inkscape:collect="always"
       xlink:href="#linearGradient10813"
       id="linearGradient11472"
       gradientUnits="userSpaceOnUse"
       gradientTransform="matrix(0.69081969,0,0,0.69081969,-3707.1451,-10851.927)"
       x1="6958.7266"
       y1="16715.047"
       x2="6097.019"
       y2="16715.047" />
    <linearGradient
       inkscape:collect="always"
       xlink:href="#linearGradient10851"
       id="linearGradient11475"
       gradientUnits="userSpaceOnUse"
       gradientTransform="matrix(0.69081969,0,0,0.69081969,-3707.1451,-10832.835)"
       x1="5275.8892"
       y1="16180.276"
       x2="6557.1309"
       y2="16180.276" />
    <linearGradient
       inkscape:collect="always"
       xlink:href="#linearGradient11997"
       id="linearGradient12003"
       x1="2233.948"
       y1="755.21887"
       x2="-49.810787"
       y2="755.21887"
       gradientUnits="userSpaceOnUse"
       gradientTransform="translate(50.789204,-242.85681)" />
    <linearGradient
       inkscape:collect="always"
       xlink:href="#linearGradient10851"
       id="linearGradient12022"
       gradientUnits="userSpaceOnUse"
       gradientTransform="matrix(0.69081969,0,0,0.69081969,-3707.1451,-10832.835)"
       x1="5275.8892"
       y1="16180.276"
       x2="6557.1309"
       y2="16180.276" />
    <linearGradient
       inkscape:collect="always"
       xlink:href="#linearGradient10813"
       id="linearGradient12024"
       gradientUnits="userSpaceOnUse"
       gradientTransform="matrix(0.69081969,0,0,0.69081969,-3707.1451,-10851.927)"
       x1="6958.7266"
       y1="16715.047"
       x2="6097.019"
       y2="16715.047" />
    <linearGradient
       inkscape:collect="always"
       xlink:href="#linearGradient11170"
       id="linearGradient12026"
       gradientUnits="userSpaceOnUse"
       gradientTransform="matrix(0.69081969,0,0,0.69081969,-3707.0893,-10832.85)"
       x1="5246.4658"
       y1="16422.816"
       x2="7429.0566"
       y2="16422.816" />
  </defs>
  <sodipodi:namedview
     id="base"
     pagecolor="#141414"
     bordercolor="#666666"
     borderopacity="1.0"
     inkscape:pageopacity="1"
     inkscape:pageshadow="2"
     inkscape:zoom="0.24748737"
     inkscape:cx="1386.5308"
     inkscape:cy="305.02244"
     inkscape:document-units="px"
     inkscape:current-layer="layer1"
     showgrid="false"
     inkscape:window-width="1920"
     inkscape:window-height="1018"
     inkscape:window-x="-8"
     inkscape:window-y="-8"
     inkscape:window-maximized="1" />
  <metadata
     id="metadata9591">
    <rdf:RDF>
      <cc:Work
         rdf:about="">
        <dc:format>image/svg+xml</dc:format>
        <dc:type
           rdf:resource="http://purl.org/dc/dcmitype/StillImage" />
        <dc:title />
      </cc:Work>
    </rdf:RDF>
  </metadata>
  <g
     inkscape:label="Layer 1"
     inkscape:groupmode="layer"
     id="layer1"
     transform="translate(0,27.637817)">
    <g
       id="g12036">
      <rect
         y="-27.637817"
         x="0"
         height="1080"
         width="1920"
         id="rect10680"
         style="color:#000000;fill:#ffddb2;fill-opacity:1;fill-rule:nonzero;stroke:none;stroke-width:3;marker:none;visibility:visible;display:inline;overflow:visible;enable-background:accumulate" />
      <rect
         inkscape:export-ydpi="90"
         inkscape:export-xdpi="90"
         inkscape:export-filename="C:\Users\Daniel\Pictures\Na FB\tiger_fb.png"
         style="color:#000000;fill:url(#linearGradient12003);fill-opacity:1;fill-rule:nonzero;stroke:none;stroke-width:3;marker:none;visibility:visible;display:inline;overflow:visible;enable-background:accumulate"
         id="rect10859"
         width="1920"
         height="1080"
         x="0"
         y="-27.637817" />
      <g
         transform="translate(0,-0.008817)"
         id="g12007">
        <rect
           style="color:#000000;fill:#ffa635;fill-opacity:1;fill-rule:nonzero;stroke:#ffffff;stroke-width:0;stroke-linecap:square;stroke-linejoin:round;stroke-miterlimit:4;stroke-opacity:1;stroke-dasharray:none;stroke-dashoffset:0;marker:none;visibility:visible;display:inline;overflow:visible;enable-background:accumulate"
           id="rect12005"
           width="11.611209"
           height="102.38779"
           x="499.48911"
           y="1052.767"
           transform="matrix(0.64126619,-0.76731849,0.70597116,0.70824058,0,0)" />
        <path
           style="opacity:0.48780488;color:#000000;fill:#ffaaaa;fill-opacity:1;fill-rule:nonzero;stroke:none;stroke-width:3;marker:none;visibility:visible;display:inline;overflow:visible;enable-background:accumulate"
           inkscape:transform-center-x="-7.9408388"
           inkscape:transform-center-y="7.9408388"
           d="m 1187.4055,528.807 c -0.079,10.881 -0.9102,24.133 -11.9661,33.598 l -29.3742,-7.894 -12.3085,-47.323 z"
           id="path10764"
           inkscape:connector-curvature="0"
           sodipodi:nodetypes="ccccc" />
        <path
           id="path10682"
           d="m 537.2532,612.209 c -10.9234,0.456 -57.1623,35.318 -118.9761,67.265 -72.7096,37.577 -145.5687,85.757 -220.8415,91.81 101.1385,129.953 217.4476,139.534 290.8147,118.685 77.4875,-22.019 114.8974,-16.404 176.0638,-41.986 8.9245,-7.712 0.5836,-24.844 2.6722,-28.912 12.4413,-24.227 -61.4767,-74.845 -101.2967,-132.908 -16.4651,-24.009 -19.255,-51.588 -28.4364,-73.954 z"
           style="color:#000000;fill:#be6d00;fill-opacity:1;fill-rule:nonzero;stroke:none;stroke-width:3;marker:none;visibility:visible;display:inline;overflow:visible;enable-background:accumulate"
           inkscape:connector-curvature="0"
           sodipodi:nodetypes="cscscssc" />
        <path
           style="color:#000000;fill:#ae8b00;fill-opacity:1;fill-rule:nonzero;stroke:none;stroke-width:3;marker:none;visibility:visible;display:inline;overflow:visible;enable-background:accumulate"
           d="m 925.9549,298.32 c 0.8564,17.394 -12.5481,32.185 -29.9395,33.042 -17.3914,0.855 -48.0458,-36.058 -44.6742,-42.581 7.9963,-15.468 21.7214,-9.878 39.1129,-10.734 17.3913,-0.856 34.6445,2.882 35.5008,20.273 z"
           id="path10684"
           inkscape:connector-curvature="0"
           sodipodi:nodetypes="sssss" />
        <path
           sodipodi:nodetypes="cssccccccscssccccccccsccccccccccccccccsssss"
           inkscape:connector-curvature="0"
           style="fill:#ffa635;fill-opacity:1;stroke:none"
           d="m 570.3447,62.037 c -23.2609,1.237 -100.3927,6.972 -124.078,25.216 -29.1397,22.447 -27.9741,84.895 -45.2857,96.943 -6.7043,4.667 -23.0629,4.069 -40.1126,4.462 -31.2935,0.719 -33.4122,-71.193 -63.7467,-60.71 C 209.3117,158.29 23.3361,203 24.1165,224.182 L 37.5177,496.37 c 19.8611,32.605 38.8428,65.161 58.4585,95.099 12.8695,-55.866 9.1891,-48.644 36.0186,-63.028 13.0837,-7.013 150.7309,-51.65 177.7049,-26.495 41.1429,38.37 26.9905,85.303 69.6477,126.127 25.2068,-73.626 41.6333,-108.528 53.8833,-135.234 18.4273,-40.174 91.3659,-150.23 135.884,-155.505 54.9234,-6.509 59.3727,46.113 114.213,53.622 21.0539,2.881 120.2424,-67.473 139.7842,-59.168 46.5273,19.773 106.7396,43.029 157.4436,82.639 11.8538,9.26 -19.0455,19.416 -4.0267,22.698 33.9508,7.423 84.2704,66.338 108.1389,101.905 9.7212,14.486 -10.6531,-91.085 -1.3682,-76.08 11.59,18.733 28.7435,47.676 38.8322,77.089 0.577,-11.864 2.0016,-22.492 4.8109,-29.157 3.459,-8.21 32.3723,10.525 41.114,7.097 15.43,-6.051 12.5337,-21.972 8.1715,-35.093 C 1163.3273,444.079 1047.2463,349.502 1040.4959,329.342 1006.08,226.555 913.206,168.652 871.7821,156.521 c 79.7839,56.922 79.8221,66.211 87.8251,100.224 2.1601,9.181 -5.4435,15.626 -2.1649,27.146 3.0687,10.781 9.5656,25.6 10.9397,31.667 -43.2285,-34.206 -96.7302,-67.763 -155.5736,-94.706 -9.8827,-5.123 -17.6736,-15.767 -27.9463,-27.198 -11.9378,-13.281 -49.5112,-26.164 -62.7062,-42.648 -4.0435,-5.052 -0.6304,-18.574 18.039,-26.523 13.4389,-5.723 71.4594,-0.718 59.1596,-5.679 C 774.7634,108.883 679.9713,81.375 655.2655,72.1 631.5562,63.199 602.8099,60.316 570.3447,62.037 z m 551.787,478.002 c -1.4973,30.779 2.6634,69.899 2.6634,69.899 9.3884,-19.639 5.9006,-44.932 -2.6634,-69.899 z M 869.2688,278.441 c 5.1748,-0.255 47.6731,22.228 47.9279,27.403 0.2548,5.176 -32.5967,11.807 -37.7715,12.062 -5.1749,0.255 -16.4905,-16.221 -16.7453,-21.396 -0.2548,-5.175 1.4139,-17.814 6.5889,-18.069 z"
           id="path10686" />
        <path
           sodipodi:type="arc"
           style="color:#000000;fill:#ffcc00;fill-opacity:1;fill-rule:nonzero;stroke:none;stroke-width:3;marker:none;visibility:visible;display:inline;overflow:visible;enable-background:accumulate"
           id="path10720"
           sodipodi:cx="6655.3901"
           sodipodi:cy="16163.093"
           sodipodi:rx="18.182745"
           sodipodi:ry="18.182745"
           d="m 6673.5729,16163.093 c 0,10.042 -8.1407,18.183 -18.1828,18.183 -10.042,0 -18.1827,-8.141 -18.1827,-18.183 0,-10.042 8.1407,-18.183 18.1827,-18.183 10.0421,0 18.1828,8.141 18.1828,18.183 z"
           transform="matrix(0.68998391,-0.03397133,0.03397133,0.68998391,-4260.4211,-10634.15)" />
        <path
           transform="matrix(0.52057685,-0.02563058,0.02563058,0.52057685,-2997.9587,-7951.8879)"
           d="m 6673.5729,16163.093 c 0,10.042 -8.1407,18.183 -18.1828,18.183 -10.042,0 -18.1827,-8.141 -18.1827,-18.183 0,-10.042 8.1407,-18.183 18.1827,-18.183 10.0421,0 18.1828,8.141 18.1828,18.183 z"
           sodipodi:ry="18.182745"
           sodipodi:rx="18.182745"
           sodipodi:cy="16163.093"
           sodipodi:cx="6655.3901"
           id="path10722"
           style="opacity:0.51219512;color:#000000;fill:#fff8d9;fill-opacity:1;fill-rule:nonzero;stroke:none;stroke-width:3;marker:none;visibility:visible;display:inline;overflow:visible;enable-background:accumulate"
           sodipodi:type="arc" />
        <path
           sodipodi:nodetypes="cscscssc"
           inkscape:connector-curvature="0"
           style="color:#000000;fill:#fe9e23;fill-opacity:1;fill-rule:nonzero;stroke:none;stroke-width:3;marker:none;visibility:visible;display:inline;overflow:visible;enable-background:accumulate"
           d="m 537.2532,612.209 c -10.9234,0.456 -57.1623,35.318 -118.9761,67.265 -72.7096,37.577 -145.5687,85.757 -220.8415,91.81 101.1385,129.953 217.4476,139.534 290.8147,118.685 77.4875,-22.019 114.8974,-16.404 176.0638,-41.986 8.9245,-7.712 0.5836,-24.844 2.6722,-28.912 12.4413,-24.227 -61.4767,-74.845 -101.2967,-132.908 -16.4651,-24.009 -19.255,-51.588 -28.4364,-73.954 z"
           id="path10839" />
        <path
           sodipodi:type="arc"
           style="opacity:0.28292685;color:#000000;fill:#fff8d9;fill-opacity:1;fill-rule:nonzero;stroke:none;stroke-width:3;marker:none;visibility:visible;display:inline;overflow:visible;enable-background:accumulate"
           id="path10724"
           sodipodi:cx="6655.3901"
           sodipodi:cy="16163.093"
           sodipodi:rx="18.182745"
           sodipodi:ry="18.182745"
           d="m 6673.5729,16163.093 c 0,10.042 -8.1407,18.183 -18.1828,18.183 -10.042,0 -18.1827,-8.141 -18.1827,-18.183 0,-10.042 8.1407,-18.183 18.1827,-18.183 10.0421,0 18.1828,8.141 18.1828,18.183 z"
           transform="matrix(0.36472236,-0.01795709,0.01795709,0.36472236,-1839.9086,-5479.632)" />
        <path
           id="path10849"
           d="m 570.3447,62.037 c -23.2609,1.237 -100.3927,6.972 -124.078,25.216 -29.1397,22.447 -27.9741,84.895 -45.2857,96.943 -6.7043,4.667 -23.0629,4.069 -40.1126,4.462 -31.2935,0.719 -33.4122,-71.193 -63.7467,-60.71 C 209.3117,158.29 23.3361,203 24.1165,224.182 L 37.5177,496.37 c 19.8611,32.605 38.8428,65.161 58.4585,95.099 12.8695,-55.866 9.1891,-48.644 36.0186,-63.028 13.0837,-7.013 150.7309,-51.65 177.7049,-26.495 41.1429,38.37 26.9905,85.303 69.6477,126.127 25.2068,-73.626 41.6333,-108.528 53.8833,-135.234 18.4273,-40.174 91.3659,-150.23 135.884,-155.505 54.9234,-6.509 59.3727,46.113 114.213,53.622 21.0539,2.881 120.2424,-67.473 139.7842,-59.168 46.5273,19.773 106.7396,43.029 157.4436,82.639 11.8538,9.26 -19.0455,19.416 -4.0267,22.698 33.9508,7.423 84.2704,66.338 108.1389,101.905 9.7212,14.486 -10.6531,-91.085 -1.3682,-76.08 11.59,18.733 28.7435,47.676 38.8322,77.089 0.577,-11.864 2.0016,-22.492 4.8109,-29.157 3.459,-8.21 32.3723,10.525 41.114,7.097 15.43,-6.051 12.5337,-21.972 8.1715,-35.093 C 1168.1488,439.25745 1053.1757,343.57263 1040.4959,329.342 1006.08,226.555 913.206,168.652 871.7821,156.521 c 79.7839,56.922 79.8221,66.211 87.8251,100.224 2.1601,9.181 -5.4435,15.626 -2.1649,27.146 3.0687,10.781 9.5656,25.6 10.9397,31.667 -43.2285,-34.206 -96.7302,-67.763 -155.5736,-94.706 -9.8827,-5.123 -17.6736,-15.767 -27.9463,-27.198 -11.9378,-13.281 -49.5112,-26.164 -62.7062,-42.648 -4.0435,-5.052 -0.6304,-18.574 18.039,-26.523 13.4389,-5.723 71.4594,-0.718 59.1596,-5.679 C 774.7634,108.883 679.9713,81.375 655.2655,72.1 631.5562,63.199 602.8099,60.316 570.3447,62.037 z m 551.787,478.002 c -1.4973,30.779 2.6634,69.899 2.6634,69.899 9.3884,-19.639 5.9006,-44.932 -2.6634,-69.899 z M 869.2688,278.441 c 5.1748,-0.255 47.6731,22.228 47.9279,27.403 0.2548,5.176 -32.5967,11.807 -37.7715,12.062 -5.1749,0.255 -16.4905,-16.221 -16.7453,-21.396 -0.2548,-5.175 1.4139,-17.814 6.5889,-18.069 z"
           style="fill:url(#linearGradient12022);fill-opacity:1;stroke:none"
           inkscape:connector-curvature="0"
           sodipodi:nodetypes="cssccccccscssccccccccsccccccccccccccccsssss" />
        <path
           inkscape:connector-curvature="0"
           style="opacity:0.28292685;color:#000000;fill:url(#linearGradient12024);fill-opacity:1;fill-rule:nonzero;stroke:none;stroke-width:3;marker:none;visibility:visible;display:inline;overflow:visible;enable-background:accumulate"
           d="m 752.2903,581.894 c 2.3244,9.484 29.5357,123.145 55.4382,155.348 45.8186,56.964 102.5006,42.761 116.9429,57.727 l 61.0944,-54.575 -9.0239,-6.39 -52.5023,10.406 -52.6318,-49.739 -35.6204,-106.84 -83.6971,-5.937 z m 252.2355,16.083 -17.8102,89.979 c 22.0786,-15.607 38.3369,-45.64 51.8547,-75.255 l -34.0445,-14.724 z m 53.517,13.428 -34.5626,90.8 c 24.8092,-15.743 35.1379,-32.635 54.0998,-62.52 l -19.5372,-28.28 z m -45.7668,132.227 -67.2686,41.751 22.2574,23.035 c 19.8091,-19.928 39.121,-42.204 45.0112,-64.786 z"
           id="path10726" />
        <path
           sodipodi:nodetypes="ccccsccccscccscccccccccccccccccccccccccccccccscccccccccscccccccccccccccccccccccccccsccccccccccccccsccccccccccccscccccccccccsccccccscccccccccccccccccccccccccsccccccccccccccccccccccccccccccccccc"
           inkscape:connector-curvature="0"
           style="fill:#2f2f2f;fill-opacity:1;stroke:none"
           d="m 337.3397,58.898 c -20.7972,1.137 -30.2655,9.001 -47.3793,19.3 -20.2264,12.175 -15.9169,31.868 -19.9488,51.387 -0.9316,4.51 -26.8157,11.469 -43.2483,18.037 -32.6669,13.063 -106.561,30.741 -128.0883,43.418 -20.7433,12.215 -39.0695,74.261 -69.2287,141.394 l 3.221,65.42 c 63.0099,-85.439 87.9967,-201.826 173.5866,-229.985 -36.622,38.889 -55.7989,101.105 -83.1678,211.677 38.0673,-81.078 71.7386,-123.339 92.0598,-142.582 43.3995,-41.097 76.4389,-73.27 131.1102,-53.597 9.2358,3.324 -42.1123,-93.053 -3.5025,-90.456 135.5942,9.129 36.5312,94.315 63.7579,91.23 35.6374,-4.037 113.9637,-59.699 102.0451,-72.353 C 463.9213,64.4 393.5161,60.511 346.9991,58.855 c -3.4888,-0.122 -6.6884,-0.119 -9.6594,0.04 z m 214.3989,0.144 c -22.6946,1.212 -47.5571,3.954 -67.6471,9.771 60.0444,-2.685 74.6807,94.953 92.2694,150.54 53.5751,-97.809 22.41,-155.747 17.7881,-161.125 -10.3464,-0.116 -23.5851,-0.05 -37.9039,0.591 -1.4913,0.07 -2.9935,0.141 -4.5065,0.223 z m 73.4702,2.262 c 17.5304,13.824 12.9414,83.158 -0.7997,102.728 C 641.6033,162.721 650.3975,88.01 774.168,107.27 738.4187,87.598 690.2276,70.077 625.2088,61.304 z m 151.7691,53.868 c -15.2153,0.898 -31.687,4.1 -44.462,9.192 34.1349,-0.556 82.5518,3.982 120.1489,15.267 0,0 -4.1247,-5.874 -41.8082,-21.199 -7.9945,-3.074 -20.4535,-4.052 -33.8787,-3.26 z m 70.0741,37.768 c -1.2729,0.06 -2.5599,0.126 -3.8586,0.211 -9.4468,0.583 -19.5573,1.621 -30.0337,2.84 36.3003,7.009 93.3639,16.032 127.1943,33.249 0,0 -9.6401,-8.421 -47.6919,-30.073 -10.4287,-5.936 -26.5163,-7.153 -45.6102,-6.228 z m -184.6704,16.722 c -2.4646,0.213 -3.4141,1.127 -2.2358,2.877 6.0629,9 71.5992,45.204 80.7415,48.979 7.8116,3.224 4.0432,-12.466 -1.6103,-23.047 -6.0232,-11.275 -63.5862,-29.968 -76.8954,-28.809 z M 47.6131,206.22 c -2.6811,0.822 -5.3676,1.617 -8.0292,2.427 -5.5484,2.196 -15.9953,4.814 -15.7321,10.158 l 0.8629,17.527 c 7.9575,-11.605 15.5967,-21.83 22.8984,-30.112 z m 719.0895,-6.052 c 28.0655,35.533 57.8578,127.028 49.0891,130.446 -6.1238,2.387 -23.6441,6.152 -20.7609,9.43 21.2386,24.156 106.0644,36.865 143.1627,44.134 -61.7822,-40.023 -67.1641,-27.687 -85.5922,-48.287 -20.6769,-23.115 -10.6012,-39.357 -19.6088,-70.772 28.5031,26.5 21.6574,32.808 39.4055,50.539 11.6104,11.599 48.3123,10.171 64.3322,9.823 4.8283,-0.105 18.1527,29.205 21.4057,37.03 0.6439,1.55 -0.081,1.828 1.8689,-5.063 0.6771,-2.391 80.8515,21.443 129.4239,65.366 -44.1181,-52.535 -101.6299,-76.874 -120.2405,-81.661 -3.3076,-0.851 -3.1853,-3.215 -3.395,-6.62 -1.7088,-27.721 -51.7907,-43.808 -95.187,-65.365 -20.1244,-9.999 -67.737,-54.034 -103.9036,-69 z m 229.8446,42.114 c 10.2578,18.369 26.8085,54.364 40.3389,86.179 1.1456,2.694 -9.3417,4.152 -10.8809,4.21 131.2179,81.728 134.8313,153.65 139.9925,180.806 -43.8558,-9.024 -55.5898,-24.164 -64.0813,-43.359 -3.6152,-8.173 -17.0572,-23.979 -21.8002,-25.729 16.5578,29.625 45.9881,118.488 41.872,180.536 12.5505,-19.626 26.6623,-35.401 38.2318,-47.489 2.016,-2.106 18.3022,-14.48 16.4685,-19.788 -1.431,-4.143 -7.2643,-13.236 -14.8168,-15.589 -3.9343,-1.225 -11.0139,5.092 -12.4676,2.711 -4.4984,-7.365 -2.5073,-25.95 -5.1115,-29.187 11.818,4.51 16.5079,6.651 27.4706,9.195 6.4238,1.491 14.4352,17.576 15.1306,14.061 11.2941,-57.121 -62.0432,-175.625 -131.1617,-202.509 -4.8214,-1.875 -4.8969,-0.542 -5.8863,-4.098 -15.5314,-31.496 -30.7118,-65.076 -53.2986,-89.95 z m -311.8601,24.389 c -21.0624,1.114 -43.9861,4.099 -46.9522,7.78 -2.4464,3.038 38.2354,4.847 33.9969,13.564 -11.7078,24.074 -49.4569,95.777 -40.9194,116.701 8.5378,20.924 105.0777,7.174 109.9351,7.123 1.8052,-0.02 -8.1705,24.236 -18.5835,30.829 -46.3133,29.323 -46.1535,81.51 -46.1535,81.51 43.5664,-59.651 146.3356,-94.277 221.7032,-90.758 0,0 -41.06,-13.164 -114.4722,-6.209 -5.6314,0.534 9.1577,-27.962 9.1128,-33.972 -0.021,-2.815 -89.9616,-6.182 -104.0097,-7.502 -14.0481,-1.319 16.3925,-68.908 20.3908,-81.042 3.0958,-9.39 12.8275,-31.692 12.4885,-35.651 -0.2277,-2.652 -15.1642,-3.29 -32.3538,-2.579 -1.3815,0.06 -2.7787,0.137 -4.183,0.206 z m -114.0328,9.743 c -31.756,1.725 -94.6979,9.641 -85.1297,13.788 25.3826,11.006 42.9882,7.108 39.7867,28.43 -19.7157,131.321 -37.4564,136.933 -77.248,202.85 -20.0043,33.139 108.6111,-90.913 119.2455,-100.542 4.2749,-3.873 -5.5006,-33.433 -6.6467,-45.883 -0.8402,-9.126 24.7608,-80.745 27.5134,-97.928 0.1872,-1.171 -6.9357,-1.289 -17.5212,-0.715 z m 302.0073,10.354 c 0,0 25.4666,8.904 32.5514,10.545 9.9745,2.312 -13.127,20.284 -26.4339,14.053 -10.0021,-4.682 -6.1175,-24.598 -6.1175,-24.598 z m -447.4203,54.775 c -20.5226,1.679 -200.4188,178.398 -235.2846,161.284 -22.3433,-10.968 -44.5666,-23.848 -81.0888,-19.156 -27.0262,3.471 -50.6447,7.678 -71.364,12.419 l 0.4682,9.509 c 0.5898,11.981 35.6436,59.715 53.6843,87.25 2.5774,-1.272 4.9426,-2.675 7.1011,-4.154 l 3.3558,-2.521 c 21.9908,-17.722 21.8356,-46.044 45.608,-58.789 13.1924,-7.07 132.2378,-50.203 159.4358,-24.838 6.5812,6.138 11.755,12.519 15.9807,19.033 65.6945,-56.279 91.8902,-134.743 103.706,-176.464 0.7351,-2.596 0.1364,-3.718 -1.6025,-3.573 z m 201.0074,128.521 c -24.94,1.186 -173.3774,157.154 -155.5571,157.618 129.2809,3.374 150.8078,47.007 176.5266,72.493 30.816,30.538 -24.3911,-73.442 2.2223,-115.098 10.8156,-16.927 -69.1109,12.811 -127.879,23.523 -9.7032,1.768 113.3354,-138.095 105.2489,-138.542 -0.1811,-0.01 -0.3652,0 -0.5617,0 z m 276.8273,-2.801 c -50.3743,3.029 -139.5632,31.388 -168.3337,66.69 -30.4038,37.307 -43.0785,168.783 13.4075,231.931 47.7226,53.352 147.0183,65.422 174.1707,61.52 10.0286,-1.441 60.5308,59.17 -6.0984,85.979 -15.234,6.129 -50.7236,0.564 -61.9518,-2.742 -9.2097,-2.714 -103.0479,-52.255 -138.9273,-79.272 -17.2213,-12.966 -81.2026,-70.703 -83.9226,-70.566 43.3327,56.464 4.0573,89.581 -40.5507,105.312 -37.8089,13.332 -140.1247,19.049 -216.0605,100.446 99.5678,-65.317 226.4364,-78.974 355.0815,-101.801 17.0296,-3.021 100.0741,63.45 146.9317,65.368 138.8447,5.688 107.688,-104.726 105.0093,-111.361 -2.1455,-5.311 -4.6116,-9.992 -7.9088,-12.687 27.8323,-20.614 44.2448,-58.442 50.8782,-75.107 -14.0136,7.924 -26.1806,13.394 -44.6324,20.656 5.3379,-10.448 8.5824,-18.822 9.8701,-28.693 -5.1378,3.456 -17.7493,6.348 -19.214,6.61 -41.0131,7.338 -60.8273,1.523 -68.6956,-11.964 -19.6566,-33.699 -47.649,-111.735 -47.649,-111.735 31.2063,-14.286 58.9559,-15.289 80.0414,-15.289 9.8551,0 30.5835,1.935 47.9635,6.177 8.2564,2.015 -9.074,98.856 -9.074,98.856 39.6388,-7.876 53.4492,-55.554 55.7619,-52.739 -8.5834,23.357 -20.0506,50.596 -23.3653,68.479 34.1759,-3.516 65.472,-55.978 67.3166,-54.237 12.3383,11.656 19.263,17.468 28.7086,10.193 4.2084,-3.242 13.2137,-16.036 11.8682,-15.325 -7.6575,4.034 -15.6368,8.369 -16.3844,7.01 C 1029.1408,535.048 967.4818,507.476 936.8351,473.36 c -4.6392,-5.164 -16.9678,-7.106 -33.7591,-6.097 z M 778.0157,604.23 c 0.5555,-0.05 1.1777,-0.06 1.8349,-0.05 56.7409,2.111 44.2388,14.471 52.4297,24.891 6.9926,8.897 40.0705,81.163 51.3022,99.45 7.9309,12.911 32.3442,22.052 50.7926,22.81 18.4483,0.759 27.8223,-2.51 43.3436,-11.709 -5.8361,9.325 -5.8949,10.351 -14.6184,18.291 -10.7003,9.738 -27.3423,15.35 -35.3677,13.911 -56.107,-10.059 -83.2879,-23.064 -109.245,-56.763 -2.7871,-3.618 -30.5137,-38.491 -40.9668,-79.62 l -2.8131,-13.673 -0.9233,-6.46 c -1.0408,-8.58 0.3413,-10.792 4.2312,-11.081 z m 233.2369,3.02 c 6.1557,-0.61 16.84,5.223 22.2654,11.029 -11.9479,33.264 -28.1909,50.908 -44.0057,64.114 11.9971,-29.851 20.2957,-50.166 21.7403,-75.143 z m 46.9486,36.486 c 6.144,0.526 6.8124,2.552 11.0532,5.875 -10.9827,19.663 -30.9029,36.451 -41.5701,46.853 -0.931,0.908 24.3711,-32.093 30.5169,-52.728 z m -50.3026,107.868 c -4.3072,8.714 -14.352,28.885 -39.7005,47.95 -2.5834,1.943 -10.9674,-6.71 -12.451,-7.925 20.6462,-11.778 34.7366,-21.048 52.1515,-40.025 z m -709.6653,35.913 c -6.6014,0.6 -37.1657,16.098 -67.1796,27.17 26.3076,25.377 55.1469,54.167 89.3891,61.306 44.4747,9.273 153.2303,-14.819 226.6413,-37.874 -107.7484,19.415 -180.1423,10.742 -218.237,-11.367 -13.1588,-7.637 -22.8517,-37.147 -29.7471,-39.192 -0.2154,-0.06 -0.4958,-0.08 -0.8667,-0.04 z"
           id="path10688" />
        <path
           inkscape:connector-curvature="0"
           style="fill:url(#linearGradient12026);fill-opacity:1;stroke:none"
           d="m 585.9271,58.181 c -8.7595,0 -18.8859,0.144 -29.625,0.624 -1.4913,0.07 -2.987,0.137 -4.5,0.219 -18.2564,0.975 -37.9258,2.96 -55.375,6.719 49.8906,10.224 63.6771,98.007 80,149.594 23.3196,-42.573 30.5817,-77.581 30.9687,-104 0,-0.136 0,-0.272 0,-0.406 -0.4481,-31.573 -10.691,-49.814 -13.1874,-52.719 -2.5867,-0.03 -5.3615,-0.03 -8.2813,-0.03 z m -243.9063,0.562 c -1.6073,0 -3.1395,0.05 -4.625,0.125 -20.7971,1.137 -30.2612,9.014 -47.375,19.313 -20.2263,12.174 -15.9368,31.855 -19.9687,51.374 -0.9316,4.51 -26.7861,11.495 -43.2187,18.063 -32.667,13.063 -106.5665,30.729 -128.0938,43.406 -20.701,12.19 -39.013,74.025 -69.0625,141 l 3.0313,61.813 c 63.0099,-85.439 88.0038,-201.81 173.5937,-229.969 -1.7839,1.894 -3.5147,3.836 -5.2187,5.844 1.7161,-0.656 3.4517,-1.263 5.2187,-1.844 -35.6675,37.875 -54.8058,97.998 -81.0625,203.25 37.204,-78.186 70.0219,-119.268 89.9688,-138.156 43.3995,-41.097 76.4224,-73.298 131.0937,-53.625 0.3002,0.108 0.5414,0.127 0.7187,0.03 -2.8544,-12.357 -19.7506,-50.235 -18.75,-71.563 -0.5158,-11.608 2.9874,-19.682 14.5313,-18.906 60.8085,4.094 74.4297,23.479 73.4063,43.344 0.9967,18.033 -12.0494,37.288 -14.3126,46.469 0.6045,1.187 2.0403,1.702 4.6563,1.406 31.8135,-3.604 97.655,-48.343 102.9375,-66.906 -0.2018,-0.522 -0.4723,-1.01 -0.875,-1.438 C 463.9793,64.385 393.5691,60.492 347.0521,58.836 c -1.7444,-0.06 -3.4239,-0.1 -5.0313,-0.09 z m 287.1876,3.094 c 5.4798,8.784 7.6754,24.786 7.4374,41.625 0.1978,20.552 -3.4258,43.102 -9.4374,55.719 15.2652,-8.062 29.1229,-70.201 136.6874,-57.344 -33.7819,-17.038 -77.6439,-31.907 -134.6874,-40 z m 157.6562,53.062 c -3.1809,-0.03 -6.4874,0.05 -9.8438,0.25 -10.7239,0.633 -22.0432,2.442 -32.2812,5.219 29.5002,0.496 66.2384,4.319 97.5625,12.344 -6.1967,-3.352 -15.9287,-8 -31.375,-14.281 -5.9959,-2.306 -14.5199,-3.447 -24.0625,-3.532 z m 70.6562,37.75 c -3.3512,0 -6.8261,0.108 -10.4062,0.282 -1.2729,0.06 -2.5763,0.133 -3.875,0.218 -5.3327,0.329 -10.8916,0.774 -16.5938,1.344 30.181,5.63 68.9902,12.787 98.375,24 -7.2979,-4.687 -17.6712,-11.013 -32.3124,-19.344 -8.4734,-4.823 -20.6655,-6.525 -35.1876,-6.5 z m -193.7187,16.938 c -0.4994,0 -0.9591,0.03 -1.375,0.06 -0.4207,0.04 -0.7644,0.11 -1.0937,0.188 10.4786,10.741 70.8745,44.043 79.625,47.656 2.5138,1.038 3.8115,0.111 4.25,-1.969 -0.5971,-4.874 -2.9728,-11.63 -5.875,-17.062 -5.835,-10.923 -60.0492,-28.822 -75.5313,-28.875 z m 107.2813,32.468 c 24.1077,35.032 47.9766,105.701 46.25,121.469 0.2896,4.013 -0.1805,6.548 -1.5,7.063 -4.5399,1.769 -15.3273,4.288 -19.4376,6.812 21.452,21.515 93.3965,33.713 132.875,41.063 -53.3523,-33.132 -59.1356,-23.043 -76.625,-42.594 -20.6769,-23.115 -10.5861,-39.335 -19.5937,-70.75 0.4762,0.443 0.9182,0.85 1.375,1.281 -0.4038,-1.724 -0.8526,-3.459 -1.375,-5.281 28.5031,26.5 21.6582,32.8 39.4063,50.531 11.6103,11.599 48.2925,10.161 64.3124,9.813 4.8284,-0.105 18.1533,29.206 21.4063,37.031 0.6439,1.55 -0.075,1.828 1.875,-5.062 0.6123,-2.163 66.2443,17.147 114.7187,53.343 -41.387,-41.51 -88.9322,-61.355 -105.5312,-65.625 -3.3076,-0.851 -3.1653,-3.22 -3.375,-6.625 -1.7088,-27.721 -51.7912,-43.818 -95.1875,-65.375 -19.3337,-9.606 -64.0418,-50.615 -99.5937,-67.094 z m -727.9688,5.532 c -1.1557,0.347 -2.3199,0.681 -3.4688,1.031 -5.1378,2.034 -14.4488,4.445 -15.5937,9.031 l 0.7187,14.656 c 6.3197,-9.216 12.4353,-17.525 18.3438,-24.718 z m 959.0625,41.187 c 10.0908,19.7 23.4413,49.066 34.75,75.657 0.2819,0.662 -0.1485,1.27 -0.9687,1.781 0.3149,0.737 0.6569,1.485 0.9687,2.219 0.6718,1.579 -2.6341,2.709 -5.8125,3.406 126.2508,80.406 129.8435,150.822 134.9375,177.625 -0.2444,-0.05 -0.4764,-0.106 -0.7187,-0.157 0.2459,1.451 0.479,2.896 0.7187,4.157 -43.8558,-9.024 -55.6022,-24.18 -64.0937,-43.375 -2.9818,-6.741 -12.6054,-18.637 -18.5626,-23.594 15.8862,32.361 39.5424,106.89 39,164.094 0.033,3.378 0.01,6.71 -0.125,9.968 12.4949,-19.465 26.4985,-35.108 38,-47.124 1.695,-1.771 13.4739,-10.797 16.0938,-16.782 -1.9079,-4.452 -7.4347,-12.412 -14.4375,-14.594 -3.9343,-1.224 -11.015,5.069 -12.4687,2.688 -4.4985,-7.365 -2.5209,-25.95 -5.125,-29.188 0.4642,0.178 0.7757,0.299 1.2187,0.469 -0.2481,-2.086 -0.6116,-3.714 -1.2187,-4.469 11.818,4.51 16.5372,6.675 27.5,9.219 6.4237,1.491 14.4295,17.578 15.125,14.063 0.6742,-3.41 1.0038,-7.06 1.0937,-10.875 -1.5884,-60.694 -68.6828,-162.932 -132.25,-187.657 -4.8214,-1.874 -4.9168,-0.537 -5.9063,-4.093 -14.2168,-28.831 -28.1403,-59.391 -47.7187,-83.438 z m -300.9687,17.407 c -3.8212,0 -7.9839,0.103 -12.2813,0.281 -1.3815,0.06 -2.7832,0.118 -4.1875,0.187 -16.9697,0.898 -35.1188,3.007 -43.0938,5.719 9.6131,2.251 33.4548,4.841 30.1563,11.625 -0.121,0.249 -0.3423,0.647 -0.4687,0.906 0.7922,0.925 1.025,1.95 0.4687,3.094 -10.2911,21.161 -40.714,79.135 -42.125,107.062 0.1447,2.144 0.5362,4.061 1.1875,5.657 8.5378,20.924 105.0801,7.176 109.9375,7.125 0.4621,0 0.1415,1.59 -0.75,4.062 0.2224,-0.02 0.6325,-0.06 0.75,-0.06 1.8052,-0.02 -8.1808,24.219 -18.5937,30.812 -38.3291,24.268 -44.8049,64.111 -45.9063,77.156 40.1672,-54.623 130.0147,-88.146 202.6875,-90.5 -18.8019,-3.15 -51.2694,-6.333 -95.6875,-2.124 -1.4232,0.134 -1.5225,-1.571 -0.9063,-4.313 -2.3152,-2.633 6.6382,-21.204 9.2813,-30.063 -8.2437,-2.719 -89.9428,-5.84 -103.2813,-7.093 -3.0292,-0.285 -3.9593,-3.648 -3.5624,-8.875 -1.7165,-15.941 20.5861,-65.891 23.9687,-76.156 2.6011,-7.89 9.8454,-24.857 11.9063,-32.438 -2.0723,-1.435 -9.6651,-2.059 -19.5,-2.062 z m -120.25,9.874 c -2.7929,0 -6.2805,0.129 -10.25,0.344 -25.196,1.369 -69.9897,6.624 -82.6563,10.813 23.0324,9.33 39.016,7.015 37.5937,24.937 0.1688,1.858 0.09,3.994 -0.2812,6.469 -19.7157,131.321 -37.4584,136.927 -77.25,202.844 -0.3381,0.56 -0.6205,1.059 -0.875,1.531 12.137,-2.554 110.864,-97.677 120.125,-106.062 0.5096,-0.462 0.82,-1.319 0.9688,-2.438 -0.8108,-10.38 -6.7471,-29.9 -7.625,-39.438 -0.054,-0.591 0.033,-1.477 0.1874,-2.562 -0.062,-0.49 -0.1462,-0.99 -0.1874,-1.438 -0.7925,-8.607 21.9501,-72.817 26.8437,-94.5 -1.0697,-0.339 -3.3614,-0.501 -6.5937,-0.5 z m 291.75,6.688 c 0,0 25.4776,8.922 32.5624,10.562 2.7644,0.641 2.9978,2.49 1.5938,4.688 5.2293,3.987 -15.642,19.145 -28.0312,13.344 -6.2514,-2.927 -7.0715,-11.785 -6.8126,-18.032 -0.2791,-5.564 0.6876,-10.562 0.6876,-10.562 z m -447.4063,58.781 c -20.5226,1.679 -200.4155,178.396 -235.2813,161.281 -22.3432,-10.968 -44.5715,-23.848 -81.0937,-19.156 -26.947,3.461 -50.512,7.683 -71.1875,12.406 l 0.2812,5.532 c 0.5898,11.981 35.6469,59.715 53.6876,87.25 2.5774,-1.272 4.9352,-2.678 7.0937,-4.156 l 3.375,-2.532 c 21.9908,-17.722 21.8214,-46.036 45.5937,-58.781 13.1924,-7.07 132.2395,-50.209 159.4376,-24.844 6.5811,6.138 11.7743,12.518 16,19.031 65.3208,-55.958 91.5567,-133.821 103.4687,-175.718 -0.3204,-0.258 -0.7773,-0.363 -1.375,-0.313 z m 483.9063,125.469 c -1.9532,0.03 -3.9636,0.124 -6.0626,0.25 -50.3743,3.029 -139.5732,31.386 -168.3437,66.688 -14.7268,18.07 -25.3122,58.239 -25.875,102.031 10e-5,0.08 -2e-4,0.166 0,0.25 0.092,45.426 11.0382,94.082 39.2813,125.656 47.7226,53.352 147.0038,65.433 174.1562,61.531 6.3625,-0.914 29.0209,23.127 27.7188,47.688 0.7536,15.413 -7.1461,31.551 -33.8126,42.281 -15.234,6.129 -50.7093,0.556 -61.9374,-2.75 -9.2098,-2.714 -103.0581,-52.233 -138.9376,-79.25 -14.4456,-10.876 -61.6637,-53.14 -78.1562,-66.437 9.7021,14.842 13.5057,27.931 12.9688,39.437 1.2241,30.714 -27.6804,50.575 -59.2813,61.719 -36.0828,12.723 -130.913,18.529 -205.5,89.781 97.896,-59.61 220.391,-73.097 344.5313,-95.125 17.0295,-3.021 100.0486,63.457 146.9062,65.375 91.1168,3.733 109.0278,-42.531 109.8125,-76.656 0,-0.136 0,-0.271 0,-0.407 0,-0.125 0,-0.249 0,-0.374 -0.3421,-15.633 -3.9442,-27.865 -4.7813,-29.938 -2.1454,-5.311 -4.609,-9.992 -7.9062,-12.688 0.7554,-0.559 1.4801,-1.134 2.2188,-1.718 -0.7031,-0.858 -1.4269,-1.634 -2.2188,-2.282 25.2498,-18.701 41.0417,-51.524 48.7188,-69.906 -13.1257,7.283 -24.9743,12.584 -42.4688,19.469 0.8727,-1.708 1.6449,-3.356 2.4062,-4.969 -0.813,0.323 -1.568,0.639 -2.4062,0.969 4.5166,-8.84 7.4919,-16.216 9.0938,-24.25 -5.513,3.248 -17.0388,5.906 -18.4376,6.156 -41.0131,7.338 -60.8504,1.519 -68.7187,-11.969 -19.6566,-33.699 -47.6563,-111.718 -47.6563,-111.718 0.4155,-0.19 0.8358,-0.377 1.25,-0.563 -0.8083,-2.212 -1.25,-3.437 -1.25,-3.437 31.2063,-14.286 58.977,-15.282 80.0626,-15.282 9.855,0 30.5887,1.915 47.9687,6.157 1.7824,0.435 2.3582,5.311 2.1875,12.656 0,0.1 0,0.183 0,0.281 0.3868,20.657 -7.986,71.04 -10.5312,85.782 39.0626,-8.324 52.7332,-55.391 55.0312,-52.594 -0.9079,2.47 -1.8844,4.989 -2.8438,7.531 1.4457,-2.65 2.3903,-4.083 2.8438,-3.531 -7.9514,21.637 -18.3727,46.599 -22.5,64.375 33.8322,-4.31 64.6087,-55.851 66.4375,-54.125 12.3383,11.656 19.2731,17.462 28.7187,10.187 2.15,-1.656 5.5221,-5.807 8.1563,-9.375 -6.3238,3.322 -12.0622,6.199 -12.6875,5.063 -68.1759,-123.924 -129.822,-151.509 -160.4688,-185.625 -4.0592,-4.519 -14.0154,-6.578 -27.6874,-6.344 z m -283.6563,3.156 c -24.3614,3.633 -145.3416,128.781 -155.5625,153.344 0.2067,0.09 0.4512,0.18 0.75,0.188 129.2809,3.373 150.8124,46.982 176.5312,72.468 6.13,6.075 8.8567,6.834 9.5,3.813 -1.4755,-14.316 -15.2842,-52.956 -14.75,-84.688 -6e-4,-0.03 6e-4,-0.06 0,-0.09 -0.2407,-12.981 1.6613,-25.035 7.4688,-34.126 0.049,-0.08 0.08,-0.143 0.125,-0.218 -8.4277,-5.755 -76.3765,18.34 -128,27.75 -1.0658,0.194 -0.444,-1.399 1.3438,-4.25 -0.4457,0.08 -0.9006,0.169 -1.3438,0.25 -8.7303,1.59 89.9416,-111.423 103.9375,-134.438 z m 154.3437,130 c 56.7409,2.111 44.2467,14.487 52.4376,24.906 6.9925,8.898 40.0807,81.151 51.3124,99.438 7.931,12.911 32.3329,22.054 50.7813,22.812 18.4483,0.759 27.8224,-2.488 43.3437,-11.687 -1.6627,2.657 -2.8474,4.589 -3.9062,6.25 1.2673,-0.712 2.5559,-1.45 3.9062,-2.25 -5.8361,9.325 -5.9014,10.341 -14.625,18.281 -10.7003,9.738 -27.3183,15.345 -35.3437,13.906 -56.107,-10.059 -83.2929,-23.05 -109.25,-56.75 -2.7871,-3.617 -30.5157,-38.496 -40.9687,-79.624 l -2.8126,-13.688 -0.9374,-6.438 c -0.3344,-2.756 -0.3874,-4.848 -0.2188,-6.437 -0.4818,-6.55 0.9821,-8.397 4.4688,-8.656 0.5555,-0.05 1.1553,-0.07 1.8124,-0.06 z m 232.625,3.032 c 6.2659,0.159 15.9762,5.65 21.0626,11.093 -0.3542,0.986 -0.7322,1.948 -1.0938,2.907 0.3778,0.361 0.7547,0.73 1.0938,1.093 -11.948,33.264 -28.1852,50.888 -44,64.094 0.8438,-2.1 1.6313,-4.052 2.4374,-6.063 -0.8105,0.701 -1.6285,1.387 -2.4374,2.063 11.997,-29.851 20.2741,-50.148 21.7187,-75.125 0.3847,-0.04 0.801,-0.07 1.2187,-0.06 z m 45.75,36.531 c 6.1441,0.526 6.7905,2.552 11.0313,5.875 -0.5022,0.899 -1.0247,1.8 -1.5625,2.687 0.4747,0.411 0.9746,0.852 1.5625,1.313 -10.9827,19.663 -30.8953,36.473 -41.5625,46.875 -0.368,0.359 3.3798,-4.621 8.4062,-12 -3.1206,2.938 -6.0121,5.665 -8.4062,8 -0.931,0.908 24.3855,-32.115 30.5312,-52.75 z m -50.3124,107.875 c -1.1272,2.28 -2.6656,5.375 -4.75,9 1.5624,-1.6 3.1384,-3.244 4.75,-5 -4.3073,8.714 -14.3703,28.872 -39.7188,47.937 -2.5834,1.943 -10.9539,-6.691 -12.4375,-7.906 0.9286,-0.53 1.7846,-1.042 2.6875,-1.563 -1.2436,-1.131 -2.2661,-2.092 -2.6875,-2.437 20.6462,-11.778 34.7414,-21.054 52.1563,-40.031 z m -709.6563,39.906 c -6.3816,0.58 -35.164,15.095 -64.1875,26.062 25.5094,24.64 53.4142,51.535 86.375,58.407 38.8475,8.099 126.7394,-9.239 197.2812,-29.125 -91.6478,12.939 -154.3516,3.942 -188.875,-16.094 -13.1588,-7.637 -22.8546,-37.143 -29.75,-39.188 -0.2154,-0.06 -0.4728,-0.102 -0.8437,-0.06 z"
           id="path11168" />
      </g>
      <path
         sodipodi:nodetypes="ccccccccc"
         inkscape:connector-curvature="0"
         id="rect10745"
         d="m -0.6394,-27.638 50,0 62.2253,175.859 c -15.792,31.82 -62.2253,36.7 -62.2253,115.258 l 0,231.931 c 0,50.097 5.5742,51.084 12.7278,77.782 l -12.7278,479.17 -50,0 z"
         style="color:#000000;fill:#ffddb2;fill-opacity:1;fill-rule:nonzero;stroke:none;stroke-width:3;marker:none;visibility:visible;display:inline;overflow:visible;enable-background:accumulate" />
    </g>
  </g>
</svg>
